<mxfile host="Electron" modified="2024-05-05T22:00:19.549Z" agent="Mozilla/5.0 (Windows NT 10.0; Win64; x64) AppleWebKit/537.36 (KHTML, like Gecko) draw.io/24.2.5 Chrome/120.0.6099.109 Electron/28.1.0 Safari/537.36" etag="ztfmoCgrQ2YuLCd9f-s8" version="24.2.5" type="device">
  <diagram name="Page-1" id="m5yTmgvNidSsc3ZPS8U4">
    <mxGraphModel dx="2074" dy="1204" grid="1" gridSize="10" guides="1" tooltips="1" connect="1" arrows="1" fold="1" page="1" pageScale="1" pageWidth="850" pageHeight="1100" math="0" shadow="0">
      <root>
        <mxCell id="0" />
        <mxCell id="1" parent="0" />
        <mxCell id="3B_HaCHKGCYn4Lqi1_Y3-81" value="" style="edgeStyle=orthogonalEdgeStyle;rounded=0;orthogonalLoop=1;jettySize=auto;html=1;" edge="1" parent="1" source="3B_HaCHKGCYn4Lqi1_Y3-6" target="3B_HaCHKGCYn4Lqi1_Y3-80">
          <mxGeometry relative="1" as="geometry">
            <Array as="points">
              <mxPoint x="658" y="190" />
            </Array>
          </mxGeometry>
        </mxCell>
        <mxCell id="3B_HaCHKGCYn4Lqi1_Y3-136" style="edgeStyle=orthogonalEdgeStyle;rounded=0;orthogonalLoop=1;jettySize=auto;html=1;entryX=0.5;entryY=0;entryDx=0;entryDy=0;" edge="1" parent="1" source="3B_HaCHKGCYn4Lqi1_Y3-4" target="3B_HaCHKGCYn4Lqi1_Y3-132">
          <mxGeometry relative="1" as="geometry" />
        </mxCell>
        <mxCell id="3B_HaCHKGCYn4Lqi1_Y3-4" value="&lt;div style=&quot;&quot;&gt;&lt;font style=&quot;font-size: 10px;&quot;&gt;Handles selection of non-turret weaponry and pass through input to the selected wepon&lt;/font&gt;&lt;/div&gt;" style="rounded=0;whiteSpace=wrap;html=1;" vertex="1" parent="1">
          <mxGeometry x="168.56" y="100" width="120" height="60" as="geometry" />
        </mxCell>
        <mxCell id="3B_HaCHKGCYn4Lqi1_Y3-17" value="Linked list of player controllable weapons" style="rounded=1;whiteSpace=wrap;html=1;" vertex="1" parent="1">
          <mxGeometry x="1068" y="150" width="120" height="60" as="geometry" />
        </mxCell>
        <mxCell id="3B_HaCHKGCYn4Lqi1_Y3-27" style="edgeStyle=orthogonalEdgeStyle;rounded=0;orthogonalLoop=1;jettySize=auto;html=1;" edge="1" parent="1" source="3B_HaCHKGCYn4Lqi1_Y3-25" target="3B_HaCHKGCYn4Lqi1_Y3-17">
          <mxGeometry relative="1" as="geometry" />
        </mxCell>
        <mxCell id="3B_HaCHKGCYn4Lqi1_Y3-28" value="" style="edgeStyle=orthogonalEdgeStyle;rounded=0;orthogonalLoop=1;jettySize=auto;html=1;" edge="1" parent="1" source="3B_HaCHKGCYn4Lqi1_Y3-25" target="3B_HaCHKGCYn4Lqi1_Y3-17">
          <mxGeometry relative="1" as="geometry" />
        </mxCell>
        <mxCell id="3B_HaCHKGCYn4Lqi1_Y3-25" value="List of weapon slots" style="rounded=1;whiteSpace=wrap;html=1;" vertex="1" parent="1">
          <mxGeometry x="1068" y="30" width="120" height="60" as="geometry" />
        </mxCell>
        <mxCell id="3B_HaCHKGCYn4Lqi1_Y3-196" style="edgeStyle=orthogonalEdgeStyle;rounded=0;orthogonalLoop=1;jettySize=auto;html=1;entryX=0;entryY=0.5;entryDx=0;entryDy=0;" edge="1" parent="1" target="3B_HaCHKGCYn4Lqi1_Y3-25">
          <mxGeometry relative="1" as="geometry">
            <mxPoint x="648" y="59.99999999999977" as="sourcePoint" />
          </mxGeometry>
        </mxCell>
        <mxCell id="3B_HaCHKGCYn4Lqi1_Y3-2" value="Weapon Manager" style="rounded=0;whiteSpace=wrap;html=1;" vertex="1" parent="1">
          <mxGeometry x="528" y="20" width="120" height="80" as="geometry" />
        </mxCell>
        <mxCell id="3B_HaCHKGCYn4Lqi1_Y3-5" style="edgeStyle=orthogonalEdgeStyle;rounded=0;orthogonalLoop=1;jettySize=auto;html=1;entryX=0.5;entryY=0;entryDx=0;entryDy=0;" edge="1" parent="1" target="3B_HaCHKGCYn4Lqi1_Y3-4">
          <mxGeometry relative="1" as="geometry">
            <mxPoint x="528" y="59.99999999999977" as="sourcePoint" />
          </mxGeometry>
        </mxCell>
        <mxCell id="3B_HaCHKGCYn4Lqi1_Y3-6" value="&lt;div style=&quot;&quot;&gt;&lt;font style=&quot;font-size: 10px;&quot;&gt;Methods or adding and removing wepons from slots&lt;/font&gt;&lt;/div&gt;" style="rounded=0;whiteSpace=wrap;html=1;" vertex="1" parent="1">
          <mxGeometry x="528" y="160" width="120" height="60" as="geometry" />
        </mxCell>
        <mxCell id="3B_HaCHKGCYn4Lqi1_Y3-7" style="edgeStyle=orthogonalEdgeStyle;rounded=0;orthogonalLoop=1;jettySize=auto;html=1;" edge="1" parent="1" target="3B_HaCHKGCYn4Lqi1_Y3-6">
          <mxGeometry relative="1" as="geometry">
            <mxPoint x="588" y="99.99999999999977" as="sourcePoint" />
          </mxGeometry>
        </mxCell>
        <mxCell id="3B_HaCHKGCYn4Lqi1_Y3-32" value="" style="edgeStyle=orthogonalEdgeStyle;rounded=0;orthogonalLoop=1;jettySize=auto;html=1;" edge="1" parent="1" source="3B_HaCHKGCYn4Lqi1_Y3-6" target="3B_HaCHKGCYn4Lqi1_Y3-31">
          <mxGeometry relative="1" as="geometry" />
        </mxCell>
        <mxCell id="3B_HaCHKGCYn4Lqi1_Y3-216" value="" style="group" vertex="1" connectable="0" parent="1">
          <mxGeometry x="678" y="117.5" width="940" height="582.5" as="geometry" />
        </mxCell>
        <mxCell id="3B_HaCHKGCYn4Lqi1_Y3-207" style="edgeStyle=orthogonalEdgeStyle;rounded=0;orthogonalLoop=1;jettySize=auto;html=1;entryX=0;entryY=1;entryDx=0;entryDy=0;" edge="1" parent="3B_HaCHKGCYn4Lqi1_Y3-216" source="3B_HaCHKGCYn4Lqi1_Y3-60" target="3B_HaCHKGCYn4Lqi1_Y3-61">
          <mxGeometry relative="1" as="geometry">
            <Array as="points">
              <mxPoint x="90" y="582.5" />
            </Array>
          </mxGeometry>
        </mxCell>
        <mxCell id="3B_HaCHKGCYn4Lqi1_Y3-208" value="No" style="edgeLabel;html=1;align=center;verticalAlign=middle;resizable=0;points=[];" vertex="1" connectable="0" parent="3B_HaCHKGCYn4Lqi1_Y3-207">
          <mxGeometry x="-0.0857" y="-3" relative="1" as="geometry">
            <mxPoint x="11" y="-3" as="offset" />
          </mxGeometry>
        </mxCell>
        <mxCell id="3B_HaCHKGCYn4Lqi1_Y3-60" value="Does the slot match the citera for the weapon?" style="rhombus;whiteSpace=wrap;html=1;rounded=0;" vertex="1" parent="3B_HaCHKGCYn4Lqi1_Y3-216">
          <mxGeometry x="10" y="302.5" width="160" height="120" as="geometry" />
        </mxCell>
        <mxCell id="3B_HaCHKGCYn4Lqi1_Y3-61" value="Return false" style="whiteSpace=wrap;html=1;rounded=0;" vertex="1" parent="3B_HaCHKGCYn4Lqi1_Y3-216">
          <mxGeometry x="820" y="522.5" width="120" height="60" as="geometry" />
        </mxCell>
        <mxCell id="3B_HaCHKGCYn4Lqi1_Y3-205" style="edgeStyle=orthogonalEdgeStyle;rounded=0;orthogonalLoop=1;jettySize=auto;html=1;entryX=0.5;entryY=0;entryDx=0;entryDy=0;" edge="1" parent="3B_HaCHKGCYn4Lqi1_Y3-216" source="3B_HaCHKGCYn4Lqi1_Y3-53" target="3B_HaCHKGCYn4Lqi1_Y3-61">
          <mxGeometry relative="1" as="geometry">
            <Array as="points">
              <mxPoint x="535" y="433" />
              <mxPoint x="880" y="433" />
            </Array>
          </mxGeometry>
        </mxCell>
        <mxCell id="3B_HaCHKGCYn4Lqi1_Y3-206" value="Yes" style="edgeLabel;html=1;align=center;verticalAlign=middle;resizable=0;points=[];" vertex="1" connectable="0" parent="3B_HaCHKGCYn4Lqi1_Y3-205">
          <mxGeometry x="0.0063" relative="1" as="geometry">
            <mxPoint as="offset" />
          </mxGeometry>
        </mxCell>
        <mxCell id="3B_HaCHKGCYn4Lqi1_Y3-38" value="" style="edgeStyle=orthogonalEdgeStyle;rounded=0;orthogonalLoop=1;jettySize=auto;html=1;" edge="1" parent="3B_HaCHKGCYn4Lqi1_Y3-216" source="3B_HaCHKGCYn4Lqi1_Y3-33" target="3B_HaCHKGCYn4Lqi1_Y3-60">
          <mxGeometry relative="1" as="geometry">
            <mxPoint x="110" y="322.5" as="targetPoint" />
            <Array as="points">
              <mxPoint x="225" y="162.5" />
              <mxPoint x="90" y="162.5" />
            </Array>
          </mxGeometry>
        </mxCell>
        <mxCell id="3B_HaCHKGCYn4Lqi1_Y3-39" value="Yes" style="edgeLabel;html=1;align=center;verticalAlign=middle;resizable=0;points=[];" vertex="1" connectable="0" parent="3B_HaCHKGCYn4Lqi1_Y3-38">
          <mxGeometry x="-0.1673" relative="1" as="geometry">
            <mxPoint as="offset" />
          </mxGeometry>
        </mxCell>
        <mxCell id="3B_HaCHKGCYn4Lqi1_Y3-41" value="" style="edgeStyle=orthogonalEdgeStyle;rounded=0;orthogonalLoop=1;jettySize=auto;html=1;" edge="1" parent="3B_HaCHKGCYn4Lqi1_Y3-216" source="3B_HaCHKGCYn4Lqi1_Y3-33" target="3B_HaCHKGCYn4Lqi1_Y3-40">
          <mxGeometry relative="1" as="geometry">
            <Array as="points">
              <mxPoint x="225" y="162.5" />
              <mxPoint x="300" y="162.5" />
            </Array>
          </mxGeometry>
        </mxCell>
        <mxCell id="3B_HaCHKGCYn4Lqi1_Y3-42" value="No" style="edgeLabel;html=1;align=center;verticalAlign=middle;resizable=0;points=[];" vertex="1" connectable="0" parent="3B_HaCHKGCYn4Lqi1_Y3-41">
          <mxGeometry x="-0.1886" y="-1" relative="1" as="geometry">
            <mxPoint as="offset" />
          </mxGeometry>
        </mxCell>
        <mxCell id="3B_HaCHKGCYn4Lqi1_Y3-33" value="Is there a specific slot desired for the weapon" style="rhombus;whiteSpace=wrap;html=1;rounded=0;" vertex="1" parent="3B_HaCHKGCYn4Lqi1_Y3-216">
          <mxGeometry x="150" width="150" height="145" as="geometry" />
        </mxCell>
        <mxCell id="3B_HaCHKGCYn4Lqi1_Y3-34" value="" style="edgeStyle=orthogonalEdgeStyle;rounded=0;orthogonalLoop=1;jettySize=auto;html=1;" edge="1" parent="3B_HaCHKGCYn4Lqi1_Y3-216" source="3B_HaCHKGCYn4Lqi1_Y3-31" target="3B_HaCHKGCYn4Lqi1_Y3-33">
          <mxGeometry relative="1" as="geometry" />
        </mxCell>
        <mxCell id="3B_HaCHKGCYn4Lqi1_Y3-48" value="" style="edgeStyle=orthogonalEdgeStyle;rounded=0;orthogonalLoop=1;jettySize=auto;html=1;" edge="1" parent="3B_HaCHKGCYn4Lqi1_Y3-216" source="3B_HaCHKGCYn4Lqi1_Y3-40" target="3B_HaCHKGCYn4Lqi1_Y3-47">
          <mxGeometry relative="1" as="geometry" />
        </mxCell>
        <mxCell id="3B_HaCHKGCYn4Lqi1_Y3-40" value="Go to the first slot" style="whiteSpace=wrap;html=1;rounded=0;" vertex="1" parent="3B_HaCHKGCYn4Lqi1_Y3-216">
          <mxGeometry x="240" y="190" width="120" height="60" as="geometry" />
        </mxCell>
        <mxCell id="3B_HaCHKGCYn4Lqi1_Y3-54" value="" style="edgeStyle=orthogonalEdgeStyle;rounded=0;orthogonalLoop=1;jettySize=auto;html=1;" edge="1" parent="3B_HaCHKGCYn4Lqi1_Y3-216" source="3B_HaCHKGCYn4Lqi1_Y3-47" target="3B_HaCHKGCYn4Lqi1_Y3-53">
          <mxGeometry relative="1" as="geometry" />
        </mxCell>
        <mxCell id="3B_HaCHKGCYn4Lqi1_Y3-74" style="edgeStyle=orthogonalEdgeStyle;rounded=0;orthogonalLoop=1;jettySize=auto;html=1;entryX=0.5;entryY=0;entryDx=0;entryDy=0;" edge="1" parent="3B_HaCHKGCYn4Lqi1_Y3-216" source="3B_HaCHKGCYn4Lqi1_Y3-47" target="3B_HaCHKGCYn4Lqi1_Y3-70">
          <mxGeometry relative="1" as="geometry">
            <Array as="points">
              <mxPoint x="190" y="362.5" />
            </Array>
          </mxGeometry>
        </mxCell>
        <mxCell id="3B_HaCHKGCYn4Lqi1_Y3-47" value="Does the slot match the citera for the weapon?" style="rhombus;whiteSpace=wrap;html=1;rounded=0;" vertex="1" parent="3B_HaCHKGCYn4Lqi1_Y3-216">
          <mxGeometry x="220" y="302.5" width="160" height="120" as="geometry" />
        </mxCell>
        <mxCell id="3B_HaCHKGCYn4Lqi1_Y3-56" value="" style="edgeStyle=orthogonalEdgeStyle;rounded=0;orthogonalLoop=1;jettySize=auto;html=1;" edge="1" parent="3B_HaCHKGCYn4Lqi1_Y3-216" source="3B_HaCHKGCYn4Lqi1_Y3-53" target="3B_HaCHKGCYn4Lqi1_Y3-55">
          <mxGeometry relative="1" as="geometry" />
        </mxCell>
        <mxCell id="3B_HaCHKGCYn4Lqi1_Y3-57" value="No" style="edgeLabel;html=1;align=center;verticalAlign=middle;resizable=0;points=[];" vertex="1" connectable="0" parent="3B_HaCHKGCYn4Lqi1_Y3-56">
          <mxGeometry x="-0.5294" y="-1" relative="1" as="geometry">
            <mxPoint x="10" y="-1" as="offset" />
          </mxGeometry>
        </mxCell>
        <mxCell id="3B_HaCHKGCYn4Lqi1_Y3-53" value="Have we gone&lt;div&gt;&amp;nbsp;though all the slots&lt;/div&gt;" style="rhombus;whiteSpace=wrap;html=1;rounded=0;" vertex="1" parent="3B_HaCHKGCYn4Lqi1_Y3-216">
          <mxGeometry x="470" y="302.5" width="130" height="120" as="geometry" />
        </mxCell>
        <mxCell id="3B_HaCHKGCYn4Lqi1_Y3-58" style="edgeStyle=orthogonalEdgeStyle;rounded=0;orthogonalLoop=1;jettySize=auto;html=1;entryX=0.5;entryY=0;entryDx=0;entryDy=0;" edge="1" parent="3B_HaCHKGCYn4Lqi1_Y3-216" source="3B_HaCHKGCYn4Lqi1_Y3-55" target="3B_HaCHKGCYn4Lqi1_Y3-47">
          <mxGeometry relative="1" as="geometry">
            <Array as="points">
              <mxPoint x="740" y="282.5" />
              <mxPoint x="300" y="282.5" />
            </Array>
          </mxGeometry>
        </mxCell>
        <mxCell id="3B_HaCHKGCYn4Lqi1_Y3-55" value="Go to next slot" style="whiteSpace=wrap;html=1;rounded=0;" vertex="1" parent="3B_HaCHKGCYn4Lqi1_Y3-216">
          <mxGeometry x="685" y="332.5" width="120" height="60" as="geometry" />
        </mxCell>
        <mxCell id="3B_HaCHKGCYn4Lqi1_Y3-69" style="edgeStyle=orthogonalEdgeStyle;rounded=0;orthogonalLoop=1;jettySize=auto;html=1;entryX=0.5;entryY=0;entryDx=0;entryDy=0;" edge="1" parent="3B_HaCHKGCYn4Lqi1_Y3-216" source="3B_HaCHKGCYn4Lqi1_Y3-60" target="3B_HaCHKGCYn4Lqi1_Y3-70">
          <mxGeometry relative="1" as="geometry">
            <mxPoint x="190" y="542.5" as="targetPoint" />
            <Array as="points">
              <mxPoint x="190" y="362.5" />
              <mxPoint x="190" y="492.5" />
            </Array>
          </mxGeometry>
        </mxCell>
        <mxCell id="3B_HaCHKGCYn4Lqi1_Y3-71" value="Yes" style="edgeLabel;html=1;align=center;verticalAlign=middle;resizable=0;points=[];" vertex="1" connectable="0" parent="3B_HaCHKGCYn4Lqi1_Y3-69">
          <mxGeometry x="0.1135" relative="1" as="geometry">
            <mxPoint y="-67" as="offset" />
          </mxGeometry>
        </mxCell>
        <mxCell id="3B_HaCHKGCYn4Lqi1_Y3-70" value="Add weapon to selected slot" style="whiteSpace=wrap;html=1;aspect=fixed;" vertex="1" parent="3B_HaCHKGCYn4Lqi1_Y3-216">
          <mxGeometry x="150" y="432.5" width="80" height="80" as="geometry" />
        </mxCell>
        <mxCell id="3B_HaCHKGCYn4Lqi1_Y3-76" value="Return True" style="whiteSpace=wrap;html=1;aspect=fixed;" vertex="1" parent="3B_HaCHKGCYn4Lqi1_Y3-216">
          <mxGeometry x="705" y="442.5" width="80" height="80" as="geometry" />
        </mxCell>
        <mxCell id="3B_HaCHKGCYn4Lqi1_Y3-31" value="Add Weapon" style="whiteSpace=wrap;html=1;rounded=0;" vertex="1" parent="3B_HaCHKGCYn4Lqi1_Y3-216">
          <mxGeometry y="42.5" width="120" height="60" as="geometry" />
        </mxCell>
        <mxCell id="3B_HaCHKGCYn4Lqi1_Y3-212" style="edgeStyle=orthogonalEdgeStyle;rounded=0;orthogonalLoop=1;jettySize=auto;html=1;" edge="1" parent="3B_HaCHKGCYn4Lqi1_Y3-216" source="3B_HaCHKGCYn4Lqi1_Y3-202" target="3B_HaCHKGCYn4Lqi1_Y3-76">
          <mxGeometry relative="1" as="geometry">
            <Array as="points">
              <mxPoint x="630" y="473" />
              <mxPoint x="630" y="473" />
            </Array>
          </mxGeometry>
        </mxCell>
        <mxCell id="3B_HaCHKGCYn4Lqi1_Y3-213" value="No" style="edgeLabel;html=1;align=center;verticalAlign=middle;resizable=0;points=[];" vertex="1" connectable="0" parent="3B_HaCHKGCYn4Lqi1_Y3-212">
          <mxGeometry x="-0.1864" relative="1" as="geometry">
            <mxPoint as="offset" />
          </mxGeometry>
        </mxCell>
        <mxCell id="3B_HaCHKGCYn4Lqi1_Y3-202" value="Is it a player&lt;div&gt;&amp;nbsp;controlled weapon?&lt;/div&gt;" style="rhombus;whiteSpace=wrap;html=1;" vertex="1" parent="3B_HaCHKGCYn4Lqi1_Y3-216">
          <mxGeometry x="280" y="417.5" width="130" height="110" as="geometry" />
        </mxCell>
        <mxCell id="3B_HaCHKGCYn4Lqi1_Y3-203" value="" style="edgeStyle=orthogonalEdgeStyle;rounded=0;orthogonalLoop=1;jettySize=auto;html=1;" edge="1" parent="3B_HaCHKGCYn4Lqi1_Y3-216" source="3B_HaCHKGCYn4Lqi1_Y3-70" target="3B_HaCHKGCYn4Lqi1_Y3-202">
          <mxGeometry relative="1" as="geometry" />
        </mxCell>
        <mxCell id="3B_HaCHKGCYn4Lqi1_Y3-214" style="edgeStyle=orthogonalEdgeStyle;rounded=0;orthogonalLoop=1;jettySize=auto;html=1;entryX=0.5;entryY=1;entryDx=0;entryDy=0;" edge="1" parent="3B_HaCHKGCYn4Lqi1_Y3-216" source="3B_HaCHKGCYn4Lqi1_Y3-209" target="3B_HaCHKGCYn4Lqi1_Y3-76">
          <mxGeometry relative="1" as="geometry" />
        </mxCell>
        <mxCell id="3B_HaCHKGCYn4Lqi1_Y3-209" value="Add the weapon slot to the linked list of player controlled weapons" style="whiteSpace=wrap;html=1;" vertex="1" parent="3B_HaCHKGCYn4Lqi1_Y3-216">
          <mxGeometry x="460" y="512.5" width="120" height="60" as="geometry" />
        </mxCell>
        <mxCell id="3B_HaCHKGCYn4Lqi1_Y3-210" value="" style="edgeStyle=orthogonalEdgeStyle;rounded=0;orthogonalLoop=1;jettySize=auto;html=1;" edge="1" parent="3B_HaCHKGCYn4Lqi1_Y3-216" source="3B_HaCHKGCYn4Lqi1_Y3-202" target="3B_HaCHKGCYn4Lqi1_Y3-209">
          <mxGeometry relative="1" as="geometry">
            <Array as="points">
              <mxPoint x="345" y="543" />
            </Array>
          </mxGeometry>
        </mxCell>
        <mxCell id="3B_HaCHKGCYn4Lqi1_Y3-211" value="Yes" style="edgeLabel;html=1;align=center;verticalAlign=middle;resizable=0;points=[];" vertex="1" connectable="0" parent="3B_HaCHKGCYn4Lqi1_Y3-210">
          <mxGeometry x="-0.0013" y="1" relative="1" as="geometry">
            <mxPoint y="1" as="offset" />
          </mxGeometry>
        </mxCell>
        <mxCell id="3B_HaCHKGCYn4Lqi1_Y3-234" value="" style="group" vertex="1" connectable="0" parent="1">
          <mxGeometry x="568" y="730" width="1132.12" height="320" as="geometry" />
        </mxCell>
        <mxCell id="3B_HaCHKGCYn4Lqi1_Y3-218" style="edgeStyle=orthogonalEdgeStyle;rounded=0;orthogonalLoop=1;jettySize=auto;html=1;entryX=0;entryY=0.5;entryDx=0;entryDy=0;" edge="1" parent="3B_HaCHKGCYn4Lqi1_Y3-234" source="3B_HaCHKGCYn4Lqi1_Y3-82" target="3B_HaCHKGCYn4Lqi1_Y3-91">
          <mxGeometry relative="1" as="geometry" />
        </mxCell>
        <mxCell id="3B_HaCHKGCYn4Lqi1_Y3-228" value="Weapon&lt;div&gt;Reference&lt;/div&gt;" style="edgeLabel;html=1;align=center;verticalAlign=middle;resizable=0;points=[];" vertex="1" connectable="0" parent="3B_HaCHKGCYn4Lqi1_Y3-218">
          <mxGeometry x="-0.0064" y="-2" relative="1" as="geometry">
            <mxPoint as="offset" />
          </mxGeometry>
        </mxCell>
        <mxCell id="3B_HaCHKGCYn4Lqi1_Y3-82" value="Passed in weapon slot or weapon reference" style="rhombus;whiteSpace=wrap;html=1;rounded=0;" vertex="1" parent="3B_HaCHKGCYn4Lqi1_Y3-234">
          <mxGeometry y="105" width="170" height="130" as="geometry" />
        </mxCell>
        <mxCell id="3B_HaCHKGCYn4Lqi1_Y3-83" value="" style="edgeStyle=orthogonalEdgeStyle;rounded=0;orthogonalLoop=1;jettySize=auto;html=1;" edge="1" parent="3B_HaCHKGCYn4Lqi1_Y3-234" source="3B_HaCHKGCYn4Lqi1_Y3-80" target="3B_HaCHKGCYn4Lqi1_Y3-82">
          <mxGeometry relative="1" as="geometry" />
        </mxCell>
        <mxCell id="3B_HaCHKGCYn4Lqi1_Y3-80" value="Remove Weapon" style="whiteSpace=wrap;html=1;rounded=0;" vertex="1" parent="3B_HaCHKGCYn4Lqi1_Y3-234">
          <mxGeometry x="27.879999999999995" y="10" width="114.24" height="60" as="geometry" />
        </mxCell>
        <mxCell id="3B_HaCHKGCYn4Lqi1_Y3-85" value="" style="edgeStyle=orthogonalEdgeStyle;rounded=0;orthogonalLoop=1;jettySize=auto;html=1;" edge="1" parent="3B_HaCHKGCYn4Lqi1_Y3-234" source="3B_HaCHKGCYn4Lqi1_Y3-82" target="3B_HaCHKGCYn4Lqi1_Y3-84">
          <mxGeometry relative="1" as="geometry">
            <Array as="points">
              <mxPoint x="197.88" y="170" />
              <mxPoint x="197.88" y="60" />
            </Array>
          </mxGeometry>
        </mxCell>
        <mxCell id="3B_HaCHKGCYn4Lqi1_Y3-86" value="Weapon Slot" style="edgeLabel;html=1;align=center;verticalAlign=middle;resizable=0;points=[];" vertex="1" connectable="0" parent="3B_HaCHKGCYn4Lqi1_Y3-85">
          <mxGeometry x="-0.3986" y="-2" relative="1" as="geometry">
            <mxPoint x="101" y="-2" as="offset" />
          </mxGeometry>
        </mxCell>
        <mxCell id="3B_HaCHKGCYn4Lqi1_Y3-221" value="" style="edgeStyle=orthogonalEdgeStyle;rounded=0;orthogonalLoop=1;jettySize=auto;html=1;" edge="1" parent="3B_HaCHKGCYn4Lqi1_Y3-234" source="3B_HaCHKGCYn4Lqi1_Y3-84" target="3B_HaCHKGCYn4Lqi1_Y3-220">
          <mxGeometry relative="1" as="geometry">
            <Array as="points">
              <mxPoint x="737.88" y="50" />
              <mxPoint x="737.88" y="50" />
            </Array>
          </mxGeometry>
        </mxCell>
        <mxCell id="3B_HaCHKGCYn4Lqi1_Y3-84" value="Remove weapon at slot" style="whiteSpace=wrap;html=1;rounded=0;" vertex="1" parent="3B_HaCHKGCYn4Lqi1_Y3-234">
          <mxGeometry x="617.34" y="10" width="114.24" height="60" as="geometry" />
        </mxCell>
        <mxCell id="3B_HaCHKGCYn4Lqi1_Y3-219" style="edgeStyle=orthogonalEdgeStyle;rounded=0;orthogonalLoop=1;jettySize=auto;html=1;entryX=0;entryY=0.5;entryDx=0;entryDy=0;" edge="1" parent="3B_HaCHKGCYn4Lqi1_Y3-234" source="3B_HaCHKGCYn4Lqi1_Y3-91" target="3B_HaCHKGCYn4Lqi1_Y3-95">
          <mxGeometry relative="1" as="geometry" />
        </mxCell>
        <mxCell id="3B_HaCHKGCYn4Lqi1_Y3-91" value="Go to first slot" style="whiteSpace=wrap;html=1;rounded=0;" vertex="1" parent="3B_HaCHKGCYn4Lqi1_Y3-234">
          <mxGeometry x="307.8800000000001" y="140" width="114.24" height="60" as="geometry" />
        </mxCell>
        <mxCell id="3B_HaCHKGCYn4Lqi1_Y3-99" value="" style="edgeStyle=orthogonalEdgeStyle;rounded=0;orthogonalLoop=1;jettySize=auto;html=1;entryX=0.5;entryY=1;entryDx=0;entryDy=0;" edge="1" parent="3B_HaCHKGCYn4Lqi1_Y3-234" source="3B_HaCHKGCYn4Lqi1_Y3-95" target="3B_HaCHKGCYn4Lqi1_Y3-84">
          <mxGeometry relative="1" as="geometry">
            <mxPoint x="867.57" y="130" as="targetPoint" />
          </mxGeometry>
        </mxCell>
        <mxCell id="3B_HaCHKGCYn4Lqi1_Y3-100" value="Yes" style="edgeLabel;html=1;align=center;verticalAlign=middle;resizable=0;points=[];" vertex="1" connectable="0" parent="3B_HaCHKGCYn4Lqi1_Y3-99">
          <mxGeometry x="-0.04" relative="1" as="geometry">
            <mxPoint x="-20" as="offset" />
          </mxGeometry>
        </mxCell>
        <mxCell id="3B_HaCHKGCYn4Lqi1_Y3-128" style="edgeStyle=orthogonalEdgeStyle;rounded=0;orthogonalLoop=1;jettySize=auto;html=1;entryX=0;entryY=0.5;entryDx=0;entryDy=0;" edge="1" parent="3B_HaCHKGCYn4Lqi1_Y3-234" source="3B_HaCHKGCYn4Lqi1_Y3-95" target="3B_HaCHKGCYn4Lqi1_Y3-108">
          <mxGeometry relative="1" as="geometry">
            <Array as="points">
              <mxPoint x="534.5200000000001" y="200" />
              <mxPoint x="534.5200000000001" y="200" />
              <mxPoint x="534.5200000000001" y="220" />
            </Array>
          </mxGeometry>
        </mxCell>
        <mxCell id="3B_HaCHKGCYn4Lqi1_Y3-129" value="No" style="edgeLabel;html=1;align=center;verticalAlign=middle;resizable=0;points=[];" vertex="1" connectable="0" parent="3B_HaCHKGCYn4Lqi1_Y3-128">
          <mxGeometry x="0.337" y="1" relative="1" as="geometry">
            <mxPoint as="offset" />
          </mxGeometry>
        </mxCell>
        <mxCell id="3B_HaCHKGCYn4Lqi1_Y3-95" value="Does the slot contain&lt;div&gt;our weapon reference&lt;/div&gt;" style="rhombus;whiteSpace=wrap;html=1;rounded=0;" vertex="1" parent="3B_HaCHKGCYn4Lqi1_Y3-234">
          <mxGeometry x="457.8800000000002" y="80" width="152.32" height="100" as="geometry" />
        </mxCell>
        <mxCell id="3B_HaCHKGCYn4Lqi1_Y3-101" value="Return true" style="whiteSpace=wrap;html=1;rounded=0;" vertex="1" parent="3B_HaCHKGCYn4Lqi1_Y3-234">
          <mxGeometry x="1017.88" y="20" width="114.24" height="60" as="geometry" />
        </mxCell>
        <mxCell id="3B_HaCHKGCYn4Lqi1_Y3-112" value="" style="edgeStyle=orthogonalEdgeStyle;rounded=0;orthogonalLoop=1;jettySize=auto;html=1;" edge="1" parent="3B_HaCHKGCYn4Lqi1_Y3-234" source="3B_HaCHKGCYn4Lqi1_Y3-108" target="3B_HaCHKGCYn4Lqi1_Y3-104">
          <mxGeometry relative="1" as="geometry">
            <Array as="points">
              <mxPoint x="675.59" y="290" />
            </Array>
          </mxGeometry>
        </mxCell>
        <mxCell id="3B_HaCHKGCYn4Lqi1_Y3-113" value="No" style="edgeLabel;html=1;align=center;verticalAlign=middle;resizable=0;points=[];" vertex="1" connectable="0" parent="3B_HaCHKGCYn4Lqi1_Y3-112">
          <mxGeometry x="-0.4317" y="1" relative="1" as="geometry">
            <mxPoint as="offset" />
          </mxGeometry>
        </mxCell>
        <mxCell id="3B_HaCHKGCYn4Lqi1_Y3-116" value="" style="edgeStyle=orthogonalEdgeStyle;rounded=0;orthogonalLoop=1;jettySize=auto;html=1;" edge="1" parent="3B_HaCHKGCYn4Lqi1_Y3-234" source="3B_HaCHKGCYn4Lqi1_Y3-108" target="3B_HaCHKGCYn4Lqi1_Y3-115">
          <mxGeometry relative="1" as="geometry" />
        </mxCell>
        <mxCell id="3B_HaCHKGCYn4Lqi1_Y3-117" value="Yes" style="edgeLabel;html=1;align=center;verticalAlign=middle;resizable=0;points=[];" vertex="1" connectable="0" parent="3B_HaCHKGCYn4Lqi1_Y3-116">
          <mxGeometry x="-0.3007" y="-3" relative="1" as="geometry">
            <mxPoint y="-3" as="offset" />
          </mxGeometry>
        </mxCell>
        <mxCell id="3B_HaCHKGCYn4Lqi1_Y3-108" value="Have we gone through all weapon slots?" style="rhombus;whiteSpace=wrap;html=1;" vertex="1" parent="3B_HaCHKGCYn4Lqi1_Y3-234">
          <mxGeometry x="619.7199999999999" y="160" width="111.86" height="120" as="geometry" />
        </mxCell>
        <mxCell id="3B_HaCHKGCYn4Lqi1_Y3-115" value="Return false" style="whiteSpace=wrap;html=1;" vertex="1" parent="3B_HaCHKGCYn4Lqi1_Y3-234">
          <mxGeometry x="777.88" y="190" width="114.24" height="60" as="geometry" />
        </mxCell>
        <mxCell id="3B_HaCHKGCYn4Lqi1_Y3-217" style="edgeStyle=orthogonalEdgeStyle;rounded=0;orthogonalLoop=1;jettySize=auto;html=1;entryX=0;entryY=1;entryDx=0;entryDy=0;" edge="1" parent="3B_HaCHKGCYn4Lqi1_Y3-234" source="3B_HaCHKGCYn4Lqi1_Y3-104" target="3B_HaCHKGCYn4Lqi1_Y3-95">
          <mxGeometry relative="1" as="geometry" />
        </mxCell>
        <mxCell id="3B_HaCHKGCYn4Lqi1_Y3-104" value="Go to next slot" style="whiteSpace=wrap;html=1;rounded=0;direction=south;" vertex="1" parent="3B_HaCHKGCYn4Lqi1_Y3-234">
          <mxGeometry x="467.59000000000003" y="260" width="57.12" height="60" as="geometry" />
        </mxCell>
        <mxCell id="3B_HaCHKGCYn4Lqi1_Y3-225" style="edgeStyle=orthogonalEdgeStyle;rounded=0;orthogonalLoop=1;jettySize=auto;html=1;" edge="1" parent="3B_HaCHKGCYn4Lqi1_Y3-234" source="3B_HaCHKGCYn4Lqi1_Y3-220" target="3B_HaCHKGCYn4Lqi1_Y3-101">
          <mxGeometry relative="1" as="geometry" />
        </mxCell>
        <mxCell id="3B_HaCHKGCYn4Lqi1_Y3-226" value="No" style="edgeLabel;html=1;align=center;verticalAlign=middle;resizable=0;points=[];" vertex="1" connectable="0" parent="3B_HaCHKGCYn4Lqi1_Y3-225">
          <mxGeometry x="-0.1963" relative="1" as="geometry">
            <mxPoint as="offset" />
          </mxGeometry>
        </mxCell>
        <mxCell id="3B_HaCHKGCYn4Lqi1_Y3-232" style="edgeStyle=orthogonalEdgeStyle;rounded=0;orthogonalLoop=1;jettySize=auto;html=1;entryX=0;entryY=0.5;entryDx=0;entryDy=0;" edge="1" parent="3B_HaCHKGCYn4Lqi1_Y3-234" source="3B_HaCHKGCYn4Lqi1_Y3-220" target="3B_HaCHKGCYn4Lqi1_Y3-222">
          <mxGeometry relative="1" as="geometry" />
        </mxCell>
        <mxCell id="3B_HaCHKGCYn4Lqi1_Y3-233" value="Yes" style="edgeLabel;html=1;align=center;verticalAlign=middle;resizable=0;points=[];" vertex="1" connectable="0" parent="3B_HaCHKGCYn4Lqi1_Y3-232">
          <mxGeometry x="0.2497" y="1" relative="1" as="geometry">
            <mxPoint as="offset" />
          </mxGeometry>
        </mxCell>
        <mxCell id="3B_HaCHKGCYn4Lqi1_Y3-220" value="Does the linked&amp;nbsp;&lt;div&gt;list of player weapons&lt;/div&gt;&lt;div&gt;&amp;nbsp;contain our weapon?&lt;/div&gt;" style="rhombus;whiteSpace=wrap;html=1;rounded=0;" vertex="1" parent="3B_HaCHKGCYn4Lqi1_Y3-234">
          <mxGeometry x="760" width="187.88" height="100" as="geometry" />
        </mxCell>
        <mxCell id="3B_HaCHKGCYn4Lqi1_Y3-227" style="edgeStyle=orthogonalEdgeStyle;rounded=0;orthogonalLoop=1;jettySize=auto;html=1;" edge="1" parent="3B_HaCHKGCYn4Lqi1_Y3-234">
          <mxGeometry relative="1" as="geometry">
            <mxPoint x="977.88" y="140" as="sourcePoint" />
            <mxPoint x="1067.88" y="80" as="targetPoint" />
            <Array as="points">
              <mxPoint x="1067.88" y="140" />
            </Array>
          </mxGeometry>
        </mxCell>
        <mxCell id="3B_HaCHKGCYn4Lqi1_Y3-222" value="Remove from the linked list" style="whiteSpace=wrap;html=1;rounded=0;" vertex="1" parent="3B_HaCHKGCYn4Lqi1_Y3-234">
          <mxGeometry x="907.88" y="105" width="120" height="60" as="geometry" />
        </mxCell>
        <mxCell id="3B_HaCHKGCYn4Lqi1_Y3-236" value="" style="group" vertex="1" connectable="0" parent="1">
          <mxGeometry x="90" y="190" width="544.15" height="570" as="geometry" />
        </mxCell>
        <mxCell id="3B_HaCHKGCYn4Lqi1_Y3-141" style="edgeStyle=orthogonalEdgeStyle;rounded=0;orthogonalLoop=1;jettySize=auto;html=1;entryX=0;entryY=0.5;entryDx=0;entryDy=0;" edge="1" parent="3B_HaCHKGCYn4Lqi1_Y3-236" source="3B_HaCHKGCYn4Lqi1_Y3-14" target="3B_HaCHKGCYn4Lqi1_Y3-137">
          <mxGeometry relative="1" as="geometry" />
        </mxCell>
        <mxCell id="3B_HaCHKGCYn4Lqi1_Y3-151" style="edgeStyle=orthogonalEdgeStyle;rounded=0;orthogonalLoop=1;jettySize=auto;html=1;entryX=0;entryY=0.5;entryDx=0;entryDy=0;" edge="1" parent="3B_HaCHKGCYn4Lqi1_Y3-236" source="3B_HaCHKGCYn4Lqi1_Y3-14" target="3B_HaCHKGCYn4Lqi1_Y3-147">
          <mxGeometry relative="1" as="geometry">
            <Array as="points">
              <mxPoint x="100.39999999999998" y="140" />
              <mxPoint x="100.39999999999998" y="310" />
            </Array>
          </mxGeometry>
        </mxCell>
        <mxCell id="3B_HaCHKGCYn4Lqi1_Y3-182" style="edgeStyle=orthogonalEdgeStyle;rounded=0;orthogonalLoop=1;jettySize=auto;html=1;" edge="1" parent="3B_HaCHKGCYn4Lqi1_Y3-236" source="3B_HaCHKGCYn4Lqi1_Y3-14" target="3B_HaCHKGCYn4Lqi1_Y3-178">
          <mxGeometry relative="1" as="geometry">
            <Array as="points">
              <mxPoint x="100.39999999999998" y="140" />
              <mxPoint x="100.39999999999998" y="390" />
              <mxPoint x="304.525" y="390" />
            </Array>
          </mxGeometry>
        </mxCell>
        <mxCell id="3B_HaCHKGCYn4Lqi1_Y3-14" value="Player&lt;div&gt;&lt;span style=&quot;background-color: initial;&quot;&gt;&amp;nbsp;Input&lt;/span&gt;&lt;/div&gt;" style="triangle;whiteSpace=wrap;html=1;align=left;" vertex="1" parent="3B_HaCHKGCYn4Lqi1_Y3-236">
          <mxGeometry x="29.39999999999999" y="98.75" width="53.25" height="82.5" as="geometry" />
        </mxCell>
        <mxCell id="3B_HaCHKGCYn4Lqi1_Y3-138" value="" style="edgeStyle=orthogonalEdgeStyle;rounded=0;orthogonalLoop=1;jettySize=auto;html=1;" edge="1" parent="3B_HaCHKGCYn4Lqi1_Y3-236" source="3B_HaCHKGCYn4Lqi1_Y3-132" target="3B_HaCHKGCYn4Lqi1_Y3-137">
          <mxGeometry relative="1" as="geometry" />
        </mxCell>
        <mxCell id="3B_HaCHKGCYn4Lqi1_Y3-132" value="Update" style="rounded=0;whiteSpace=wrap;html=1;" vertex="1" parent="3B_HaCHKGCYn4Lqi1_Y3-236">
          <mxGeometry x="85.3125" width="106.5" height="60" as="geometry" />
        </mxCell>
        <mxCell id="3B_HaCHKGCYn4Lqi1_Y3-145" value="" style="edgeStyle=orthogonalEdgeStyle;rounded=0;orthogonalLoop=1;jettySize=auto;html=1;" edge="1" parent="3B_HaCHKGCYn4Lqi1_Y3-236" source="3B_HaCHKGCYn4Lqi1_Y3-137" target="3B_HaCHKGCYn4Lqi1_Y3-144">
          <mxGeometry relative="1" as="geometry" />
        </mxCell>
        <mxCell id="3B_HaCHKGCYn4Lqi1_Y3-146" value="Yes" style="edgeLabel;html=1;align=center;verticalAlign=middle;resizable=0;points=[];" vertex="1" connectable="0" parent="3B_HaCHKGCYn4Lqi1_Y3-145">
          <mxGeometry x="-0.3167" y="-1" relative="1" as="geometry">
            <mxPoint as="offset" />
          </mxGeometry>
        </mxCell>
        <mxCell id="3B_HaCHKGCYn4Lqi1_Y3-148" value="" style="edgeStyle=orthogonalEdgeStyle;rounded=0;orthogonalLoop=1;jettySize=auto;html=1;" edge="1" parent="3B_HaCHKGCYn4Lqi1_Y3-236" source="3B_HaCHKGCYn4Lqi1_Y3-137" target="3B_HaCHKGCYn4Lqi1_Y3-147">
          <mxGeometry relative="1" as="geometry" />
        </mxCell>
        <mxCell id="3B_HaCHKGCYn4Lqi1_Y3-149" value="No" style="edgeLabel;html=1;align=center;verticalAlign=middle;resizable=0;points=[];" vertex="1" connectable="0" parent="3B_HaCHKGCYn4Lqi1_Y3-148">
          <mxGeometry x="-0.3444" y="-1" relative="1" as="geometry">
            <mxPoint as="offset" />
          </mxGeometry>
        </mxCell>
        <mxCell id="3B_HaCHKGCYn4Lqi1_Y3-137" value="Was our&amp;nbsp;&lt;div&gt;desired firing state updated?&lt;/div&gt;" style="rhombus;whiteSpace=wrap;html=1;rounded=0;" vertex="1" parent="3B_HaCHKGCYn4Lqi1_Y3-236">
          <mxGeometry x="131.46249999999998" y="100" width="106.5" height="80" as="geometry" />
        </mxCell>
        <mxCell id="3B_HaCHKGCYn4Lqi1_Y3-150" style="edgeStyle=orthogonalEdgeStyle;rounded=0;orthogonalLoop=1;jettySize=auto;html=1;" edge="1" parent="3B_HaCHKGCYn4Lqi1_Y3-236" source="3B_HaCHKGCYn4Lqi1_Y3-144" target="3B_HaCHKGCYn4Lqi1_Y3-147">
          <mxGeometry relative="1" as="geometry">
            <Array as="points">
              <mxPoint x="362.2125" y="220" />
              <mxPoint x="184.71249999999998" y="220" />
            </Array>
          </mxGeometry>
        </mxCell>
        <mxCell id="3B_HaCHKGCYn4Lqi1_Y3-144" value="Update our selected player weapon&#39;s firing state" style="whiteSpace=wrap;html=1;rounded=0;" vertex="1" parent="3B_HaCHKGCYn4Lqi1_Y3-236">
          <mxGeometry x="308.9625" y="110" width="106.5" height="60" as="geometry" />
        </mxCell>
        <mxCell id="3B_HaCHKGCYn4Lqi1_Y3-176" style="edgeStyle=orthogonalEdgeStyle;rounded=0;orthogonalLoop=1;jettySize=auto;html=1;" edge="1" parent="3B_HaCHKGCYn4Lqi1_Y3-236" source="3B_HaCHKGCYn4Lqi1_Y3-147" target="3B_HaCHKGCYn4Lqi1_Y3-175">
          <mxGeometry relative="1" as="geometry" />
        </mxCell>
        <mxCell id="3B_HaCHKGCYn4Lqi1_Y3-177" value="No" style="edgeLabel;html=1;align=center;verticalAlign=middle;resizable=0;points=[];" vertex="1" connectable="0" parent="3B_HaCHKGCYn4Lqi1_Y3-176">
          <mxGeometry x="-0.264" y="2" relative="1" as="geometry">
            <mxPoint x="-2" as="offset" />
          </mxGeometry>
        </mxCell>
        <mxCell id="3B_HaCHKGCYn4Lqi1_Y3-179" value="" style="edgeStyle=orthogonalEdgeStyle;rounded=0;orthogonalLoop=1;jettySize=auto;html=1;" edge="1" parent="3B_HaCHKGCYn4Lqi1_Y3-236" source="3B_HaCHKGCYn4Lqi1_Y3-147" target="3B_HaCHKGCYn4Lqi1_Y3-178">
          <mxGeometry relative="1" as="geometry" />
        </mxCell>
        <mxCell id="3B_HaCHKGCYn4Lqi1_Y3-180" value="yes" style="edgeLabel;html=1;align=center;verticalAlign=middle;resizable=0;points=[];" vertex="1" connectable="0" parent="3B_HaCHKGCYn4Lqi1_Y3-179">
          <mxGeometry x="-0.2656" relative="1" as="geometry">
            <mxPoint as="offset" />
          </mxGeometry>
        </mxCell>
        <mxCell id="3B_HaCHKGCYn4Lqi1_Y3-147" value="Do we need&lt;div&gt;to swap&lt;/div&gt;&lt;div&gt;&amp;nbsp;player weapons&lt;/div&gt;" style="rhombus;whiteSpace=wrap;html=1;rounded=0;" vertex="1" parent="3B_HaCHKGCYn4Lqi1_Y3-236">
          <mxGeometry x="120.36874999999998" y="250" width="128.6875" height="120" as="geometry" />
        </mxCell>
        <mxCell id="3B_HaCHKGCYn4Lqi1_Y3-192" style="edgeStyle=orthogonalEdgeStyle;rounded=0;orthogonalLoop=1;jettySize=auto;html=1;entryX=0;entryY=0.5;entryDx=0;entryDy=0;" edge="1" parent="3B_HaCHKGCYn4Lqi1_Y3-236" source="3B_HaCHKGCYn4Lqi1_Y3-175" target="3B_HaCHKGCYn4Lqi1_Y3-132">
          <mxGeometry relative="1" as="geometry">
            <Array as="points">
              <mxPoint y="540" />
              <mxPoint y="30" />
            </Array>
          </mxGeometry>
        </mxCell>
        <mxCell id="3B_HaCHKGCYn4Lqi1_Y3-175" value="Finish Update" style="whiteSpace=wrap;html=1;" vertex="1" parent="3B_HaCHKGCYn4Lqi1_Y3-236">
          <mxGeometry x="131.46249999999998" y="510" width="106.5" height="60" as="geometry" />
        </mxCell>
        <mxCell id="3B_HaCHKGCYn4Lqi1_Y3-185" value="" style="edgeStyle=orthogonalEdgeStyle;rounded=0;orthogonalLoop=1;jettySize=auto;html=1;" edge="1" parent="3B_HaCHKGCYn4Lqi1_Y3-236" source="3B_HaCHKGCYn4Lqi1_Y3-178" target="3B_HaCHKGCYn4Lqi1_Y3-184">
          <mxGeometry relative="1" as="geometry" />
        </mxCell>
        <mxCell id="3B_HaCHKGCYn4Lqi1_Y3-187" value="Up" style="edgeLabel;html=1;align=center;verticalAlign=middle;resizable=0;points=[];" vertex="1" connectable="0" parent="3B_HaCHKGCYn4Lqi1_Y3-185">
          <mxGeometry x="-0.2637" y="2" relative="1" as="geometry">
            <mxPoint as="offset" />
          </mxGeometry>
        </mxCell>
        <mxCell id="3B_HaCHKGCYn4Lqi1_Y3-188" style="edgeStyle=orthogonalEdgeStyle;rounded=0;orthogonalLoop=1;jettySize=auto;html=1;entryX=0;entryY=0.5;entryDx=0;entryDy=0;" edge="1" parent="3B_HaCHKGCYn4Lqi1_Y3-236" source="3B_HaCHKGCYn4Lqi1_Y3-178" target="3B_HaCHKGCYn4Lqi1_Y3-186">
          <mxGeometry relative="1" as="geometry">
            <Array as="points">
              <mxPoint x="331.15" y="410" />
            </Array>
          </mxGeometry>
        </mxCell>
        <mxCell id="3B_HaCHKGCYn4Lqi1_Y3-189" value="Down" style="edgeLabel;html=1;align=center;verticalAlign=middle;resizable=0;points=[];" vertex="1" connectable="0" parent="3B_HaCHKGCYn4Lqi1_Y3-188">
          <mxGeometry x="0.2319" y="-1" relative="1" as="geometry">
            <mxPoint x="10" y="-1" as="offset" />
          </mxGeometry>
        </mxCell>
        <mxCell id="3B_HaCHKGCYn4Lqi1_Y3-178" value="up or&lt;div&gt;down&lt;/div&gt;" style="rhombus;whiteSpace=wrap;html=1;rounded=0;" vertex="1" parent="3B_HaCHKGCYn4Lqi1_Y3-236">
          <mxGeometry x="295.65" y="270" width="71" height="80" as="geometry" />
        </mxCell>
        <mxCell id="3B_HaCHKGCYn4Lqi1_Y3-190" style="edgeStyle=orthogonalEdgeStyle;rounded=0;orthogonalLoop=1;jettySize=auto;html=1;entryX=0.5;entryY=0;entryDx=0;entryDy=0;" edge="1" parent="3B_HaCHKGCYn4Lqi1_Y3-236" source="3B_HaCHKGCYn4Lqi1_Y3-184" target="3B_HaCHKGCYn4Lqi1_Y3-175">
          <mxGeometry relative="1" as="geometry">
            <Array as="points">
              <mxPoint x="544.15" y="310" />
              <mxPoint x="544.15" y="460" />
              <mxPoint x="184.71249999999998" y="460" />
            </Array>
          </mxGeometry>
        </mxCell>
        <mxCell id="3B_HaCHKGCYn4Lqi1_Y3-184" value="Set our current weapon to the next weapon in the looped linked list of player weapons" style="whiteSpace=wrap;html=1;rounded=0;" vertex="1" parent="3B_HaCHKGCYn4Lqi1_Y3-236">
          <mxGeometry x="402.15" y="270" width="106.5" height="80" as="geometry" />
        </mxCell>
        <mxCell id="3B_HaCHKGCYn4Lqi1_Y3-191" style="edgeStyle=orthogonalEdgeStyle;rounded=0;orthogonalLoop=1;jettySize=auto;html=1;exitX=1;exitY=0.5;exitDx=0;exitDy=0;" edge="1" parent="3B_HaCHKGCYn4Lqi1_Y3-236" source="3B_HaCHKGCYn4Lqi1_Y3-186" target="3B_HaCHKGCYn4Lqi1_Y3-175">
          <mxGeometry relative="1" as="geometry">
            <Array as="points">
              <mxPoint x="544.15" y="410" />
              <mxPoint x="544.15" y="460" />
              <mxPoint x="184.71249999999998" y="460" />
            </Array>
          </mxGeometry>
        </mxCell>
        <mxCell id="3B_HaCHKGCYn4Lqi1_Y3-186" value="Set our current weapon to the previous weapon in the looped linked list of player weapons" style="whiteSpace=wrap;html=1;rounded=0;" vertex="1" parent="3B_HaCHKGCYn4Lqi1_Y3-236">
          <mxGeometry x="402.15" y="370" width="106.5" height="80" as="geometry" />
        </mxCell>
      </root>
    </mxGraphModel>
  </diagram>
</mxfile>
